<svg xmlns="http://www.w3.org/2000/svg" xmlns:xlink="http://www.w3.org/1999/xlink" width="200" zoomAndPan="magnify" viewBox="0 0 150 42" height="56" preserveAspectRatio="xMidYMid meet" version="1.0"><defs><g/><clipPath id="20eb50726e"><path d="M 1.746094 0 L 148.253906 0 L 148.253906 41.023438 L 1.746094 41.023438 Z M 1.746094 0 " clip-rule="nonzero"/></clipPath></defs><g clip-path="url(#20eb50726e)"><path fill="#ffffff" d="M 1.746094 0 L 148.253906 0 L 148.253906 41.023438 L 1.746094 41.023438 Z M 1.746094 0 " fill-opacity="1" fill-rule="nonzero"/><path fill="#000000" d="M 1.746094 0 L 148.253906 0 L 148.253906 41.023438 L 1.746094 41.023438 Z M 1.746094 0 " fill-opacity="1" fill-rule="nonzero"/></g><g fill="#ffffff" fill-opacity="1"><g transform="translate(36.403341, 16.848842)"><g><path d="M 8.640625 -3.078125 C 8.585938 -3.078125 8.539062 -3.019531 8.5 -2.90625 C 8.3125 -2.488281 8.109375 -2.101562 7.890625 -1.75 C 7.679688 -1.394531 7.441406 -1.082031 7.171875 -0.8125 C 6.898438 -0.550781 6.597656 -0.347656 6.265625 -0.203125 C 5.929688 -0.0546875 5.5625 0.015625 5.15625 0.015625 C 4.238281 0.015625 3.554688 -0.34375 3.109375 -1.0625 C 2.671875 -1.78125 2.453125 -2.828125 2.453125 -4.203125 L 2.453125 -5.90625 C 2.453125 -7.238281 2.675781 -8.265625 3.125 -8.984375 C 3.582031 -9.703125 4.285156 -10.0625 5.234375 -10.0625 C 5.628906 -10.0625 5.988281 -10 6.3125 -9.875 C 6.632812 -9.75 6.925781 -9.578125 7.1875 -9.359375 C 7.445312 -9.140625 7.671875 -8.867188 7.859375 -8.546875 C 8.054688 -8.234375 8.21875 -7.898438 8.34375 -7.546875 C 8.375 -7.441406 8.410156 -7.390625 8.453125 -7.390625 C 8.503906 -7.390625 8.53125 -7.445312 8.53125 -7.5625 L 8.53125 -10.03125 C 8.53125 -10.125 8.519531 -10.1875 8.5 -10.21875 C 8.476562 -10.25 8.445312 -10.265625 8.40625 -10.265625 C 8.351562 -10.265625 8.285156 -10.222656 8.203125 -10.140625 L 7.609375 -9.53125 C 7.285156 -9.800781 6.921875 -10.003906 6.515625 -10.140625 C 6.117188 -10.273438 5.691406 -10.34375 5.234375 -10.34375 C 4.566406 -10.34375 3.945312 -10.191406 3.375 -9.890625 C 2.8125 -9.585938 2.316406 -9.1875 1.890625 -8.6875 C 1.472656 -8.195312 1.148438 -7.632812 0.921875 -7 C 0.691406 -6.375 0.578125 -5.738281 0.578125 -5.09375 C 0.578125 -4.34375 0.707031 -3.640625 0.96875 -2.984375 C 1.238281 -2.335938 1.59375 -1.769531 2.03125 -1.28125 C 2.46875 -0.800781 2.957031 -0.421875 3.5 -0.140625 C 4.039062 0.140625 4.59375 0.28125 5.15625 0.28125 C 5.632812 0.28125 6.085938 0.1875 6.515625 0 C 6.953125 -0.175781 7.34375 -0.457031 7.6875 -0.84375 L 8.5 0.03125 C 8.539062 0.0820312 8.582031 0.109375 8.625 0.109375 C 8.6875 0.109375 8.71875 0.0703125 8.71875 0 L 8.71875 -2.921875 C 8.71875 -3.023438 8.691406 -3.078125 8.640625 -3.078125 Z M 8.640625 -3.078125 "/></g></g></g><g fill="#ffffff" fill-opacity="1"><g transform="translate(45.67924, 16.848842)"><g><path d="M 3.4375 0.21875 C 3.894531 0.21875 4.304688 0.113281 4.671875 -0.09375 C 5.035156 -0.300781 5.347656 -0.5625 5.609375 -0.875 C 5.867188 -1.1875 6.066406 -1.53125 6.203125 -1.90625 C 6.347656 -2.28125 6.421875 -2.632812 6.421875 -2.96875 C 6.421875 -3.300781 6.347656 -3.65625 6.203125 -4.03125 C 6.066406 -4.40625 5.867188 -4.75 5.609375 -5.0625 C 5.347656 -5.375 5.035156 -5.628906 4.671875 -5.828125 C 4.304688 -6.035156 3.894531 -6.140625 3.4375 -6.140625 C 2.976562 -6.140625 2.566406 -6.035156 2.203125 -5.828125 C 1.835938 -5.628906 1.519531 -5.375 1.25 -5.0625 C 0.988281 -4.75 0.785156 -4.40625 0.640625 -4.03125 C 0.503906 -3.65625 0.4375 -3.300781 0.4375 -2.96875 C 0.4375 -2.632812 0.503906 -2.28125 0.640625 -1.90625 C 0.785156 -1.53125 0.988281 -1.1875 1.25 -0.875 C 1.519531 -0.5625 1.835938 -0.300781 2.203125 -0.09375 C 2.566406 0.113281 2.976562 0.21875 3.4375 0.21875 Z M 2.015625 -3.296875 C 2.015625 -3.722656 2.03125 -4.097656 2.0625 -4.421875 C 2.101562 -4.742188 2.171875 -5.015625 2.265625 -5.234375 C 2.367188 -5.460938 2.515625 -5.628906 2.703125 -5.734375 C 2.890625 -5.847656 3.132812 -5.90625 3.4375 -5.90625 C 3.738281 -5.90625 3.984375 -5.847656 4.171875 -5.734375 C 4.359375 -5.628906 4.5 -5.460938 4.59375 -5.234375 C 4.6875 -5.015625 4.75 -4.742188 4.78125 -4.421875 C 4.820312 -4.097656 4.84375 -3.722656 4.84375 -3.296875 L 4.84375 -2.65625 C 4.84375 -2.195312 4.820312 -1.800781 4.78125 -1.46875 C 4.75 -1.144531 4.6875 -0.875 4.59375 -0.65625 C 4.5 -0.445312 4.359375 -0.289062 4.171875 -0.1875 C 3.984375 -0.0820312 3.738281 -0.03125 3.4375 -0.03125 C 3.132812 -0.03125 2.890625 -0.0820312 2.703125 -0.1875 C 2.515625 -0.289062 2.367188 -0.445312 2.265625 -0.65625 C 2.171875 -0.875 2.101562 -1.144531 2.0625 -1.46875 C 2.03125 -1.800781 2.015625 -2.195312 2.015625 -2.65625 Z M 2.015625 -3.296875 "/></g></g></g><g fill="#ffffff" fill-opacity="1"><g transform="translate(52.44323, 16.848842)"><g><path d="M 2.6875 -5.9375 L 2.6875 -8.3125 L 1.375 -7.65625 L 1.375 -5.9375 L 0.34375 -5.9375 L 0.34375 -5.6875 L 1.375 -5.6875 L 1.375 -1.609375 C 1.375 -1.035156 1.523438 -0.585938 1.828125 -0.265625 C 2.128906 0.0546875 2.570312 0.21875 3.15625 0.21875 C 3.75 0.21875 4.164062 0.0976562 4.40625 -0.140625 C 4.65625 -0.378906 4.816406 -0.707031 4.890625 -1.125 C 4.898438 -1.175781 4.90625 -1.207031 4.90625 -1.21875 C 4.90625 -1.21875 4.90625 -1.226562 4.90625 -1.25 C 4.90625 -1.332031 4.875 -1.375 4.8125 -1.375 C 4.726562 -1.375 4.679688 -1.320312 4.671875 -1.21875 C 4.628906 -0.882812 4.515625 -0.617188 4.328125 -0.421875 C 4.148438 -0.222656 3.925781 -0.125 3.65625 -0.125 C 3.3125 -0.125 3.0625 -0.242188 2.90625 -0.484375 C 2.757812 -0.722656 2.6875 -1.085938 2.6875 -1.578125 L 2.6875 -5.6875 L 4.15625 -5.6875 L 4.15625 -5.9375 Z M 2.6875 -5.9375 "/></g></g></g><g fill="#ffffff" fill-opacity="1"><g transform="translate(57.557835, 16.848842)"><g><path d="M 5.953125 -3.671875 C 5.941406 -3.835938 5.882812 -4.0625 5.78125 -4.34375 C 5.6875 -4.625 5.539062 -4.894531 5.34375 -5.15625 C 5.144531 -5.425781 4.878906 -5.65625 4.546875 -5.84375 C 4.210938 -6.039062 3.800781 -6.140625 3.3125 -6.140625 C 2.90625 -6.140625 2.53125 -6.046875 2.1875 -5.859375 C 1.84375 -5.671875 1.539062 -5.421875 1.28125 -5.109375 C 1.03125 -4.804688 0.832031 -4.460938 0.6875 -4.078125 C 0.550781 -3.703125 0.484375 -3.316406 0.484375 -2.921875 C 0.484375 -2.523438 0.550781 -2.140625 0.6875 -1.765625 C 0.832031 -1.398438 1.03125 -1.066406 1.28125 -0.765625 C 1.539062 -0.472656 1.847656 -0.234375 2.203125 -0.046875 C 2.554688 0.128906 2.945312 0.21875 3.375 0.21875 C 3.71875 0.21875 4.03125 0.164062 4.3125 0.0625 C 4.59375 -0.03125 4.84375 -0.160156 5.0625 -0.328125 C 5.28125 -0.492188 5.460938 -0.6875 5.609375 -0.90625 C 5.765625 -1.125 5.890625 -1.359375 5.984375 -1.609375 C 6.015625 -1.671875 6.03125 -1.738281 6.03125 -1.8125 C 6.03125 -1.882812 6 -1.921875 5.9375 -1.921875 C 5.882812 -1.921875 5.835938 -1.867188 5.796875 -1.765625 C 5.703125 -1.554688 5.585938 -1.34375 5.453125 -1.125 C 5.316406 -0.914062 5.148438 -0.726562 4.953125 -0.5625 C 4.753906 -0.40625 4.53125 -0.273438 4.28125 -0.171875 C 4.03125 -0.078125 3.738281 -0.03125 3.40625 -0.03125 C 3 -0.03125 2.671875 -0.179688 2.421875 -0.484375 C 2.179688 -0.785156 2.0625 -1.269531 2.0625 -1.9375 L 2.0625 -3.484375 L 5.703125 -3.484375 C 5.867188 -3.484375 5.953125 -3.546875 5.953125 -3.671875 Z M 2.0625 -3.71875 L 2.0625 -4.328125 C 2.0625 -4.660156 2.097656 -4.929688 2.171875 -5.140625 C 2.242188 -5.347656 2.34375 -5.503906 2.46875 -5.609375 C 2.59375 -5.722656 2.726562 -5.800781 2.875 -5.84375 C 3.03125 -5.882812 3.179688 -5.90625 3.328125 -5.90625 C 3.566406 -5.90625 3.765625 -5.859375 3.921875 -5.765625 C 4.078125 -5.679688 4.203125 -5.566406 4.296875 -5.421875 C 4.390625 -5.285156 4.453125 -5.128906 4.484375 -4.953125 C 4.515625 -4.785156 4.53125 -4.613281 4.53125 -4.4375 C 4.53125 -3.957031 4.453125 -3.71875 4.296875 -3.71875 Z M 2.0625 -3.71875 "/></g></g></g><g fill="#ffffff" fill-opacity="1"><g transform="translate(64.125115, 16.848842)"><g/></g></g><g fill="#ffffff" fill-opacity="1"><g transform="translate(68.195621, 16.848842)"><g><path d="M 3.875 -9.9375 L 5.03125 -9.9375 L 5.03125 -5.328125 C 4.65625 -5.867188 4.101562 -6.140625 3.375 -6.140625 C 3.007812 -6.140625 2.65625 -6.050781 2.3125 -5.875 C 1.96875 -5.695312 1.664062 -5.457031 1.40625 -5.15625 C 1.144531 -4.851562 0.929688 -4.515625 0.765625 -4.140625 C 0.609375 -3.765625 0.53125 -3.378906 0.53125 -2.984375 C 0.53125 -2.554688 0.617188 -2.148438 0.796875 -1.765625 C 0.972656 -1.378906 1.195312 -1.035156 1.46875 -0.734375 C 1.738281 -0.441406 2.039062 -0.207031 2.375 -0.03125 C 2.707031 0.132812 3.023438 0.21875 3.328125 0.21875 C 3.734375 0.21875 4.070312 0.117188 4.34375 -0.078125 C 4.613281 -0.285156 4.84375 -0.519531 5.03125 -0.78125 L 5.03125 0 L 7.484375 0 L 7.484375 -0.25 L 6.328125 -0.25 L 6.328125 -10.171875 L 3.875 -10.171875 Z M 2.109375 -3.359375 C 2.109375 -4.296875 2.207031 -4.953125 2.40625 -5.328125 C 2.601562 -5.710938 2.945312 -5.90625 3.4375 -5.90625 C 3.644531 -5.90625 3.832031 -5.867188 4 -5.796875 C 4.164062 -5.722656 4.3125 -5.628906 4.4375 -5.515625 C 4.570312 -5.398438 4.6875 -5.273438 4.78125 -5.140625 C 4.875 -5.015625 4.957031 -4.890625 5.03125 -4.765625 L 5.03125 -1.21875 C 4.800781 -0.851562 4.550781 -0.5625 4.28125 -0.34375 C 4.019531 -0.132812 3.722656 -0.03125 3.390625 -0.03125 C 3.179688 -0.03125 2.992188 -0.0703125 2.828125 -0.15625 C 2.671875 -0.238281 2.535156 -0.378906 2.421875 -0.578125 C 2.316406 -0.773438 2.238281 -1.039062 2.1875 -1.375 C 2.132812 -1.707031 2.109375 -2.125 2.109375 -2.625 Z M 2.109375 -3.359375 "/></g></g></g><g fill="#ffffff" fill-opacity="1"><g transform="translate(76.03398, 16.848842)"><g><path d="M 1.890625 -7.5625 C 1.890625 -7.382812 1.8125 -7.296875 1.65625 -7.296875 C 1.488281 -7.296875 1.40625 -7.382812 1.40625 -7.5625 C 1.40625 -7.601562 1.40625 -7.648438 1.40625 -7.703125 C 1.414062 -7.765625 1.421875 -7.820312 1.421875 -7.875 C 1.421875 -8.164062 1.394531 -8.421875 1.34375 -8.640625 C 1.300781 -8.859375 1.257812 -9.050781 1.21875 -9.21875 C 1.164062 -9.40625 1.113281 -9.566406 1.0625 -9.703125 C 1.007812 -9.835938 0.984375 -9.960938 0.984375 -10.078125 C 0.984375 -10.203125 1.03125 -10.34375 1.125 -10.5 C 1.21875 -10.664062 1.394531 -10.75 1.65625 -10.75 C 1.90625 -10.75 2.078125 -10.664062 2.171875 -10.5 C 2.265625 -10.34375 2.3125 -10.203125 2.3125 -10.078125 C 2.3125 -9.960938 2.285156 -9.835938 2.234375 -9.703125 C 2.191406 -9.566406 2.144531 -9.40625 2.09375 -9.21875 C 2.039062 -9.050781 1.988281 -8.859375 1.9375 -8.640625 C 1.894531 -8.421875 1.875 -8.164062 1.875 -7.875 C 1.875 -7.820312 1.875 -7.765625 1.875 -7.703125 C 1.882812 -7.648438 1.890625 -7.601562 1.890625 -7.5625 Z M 1.890625 -7.5625 "/></g></g></g><g fill="#ffffff" fill-opacity="1"><g transform="translate(79.211692, 16.848842)"><g/></g></g><g fill="#ffffff" fill-opacity="1"><g transform="translate(83.282198, 16.848842)"><g><path d="M 0.328125 -0.25 L 0.328125 0 L 3.6875 0 L 3.6875 -0.25 L 1.90625 -0.25 L 2.859375 -3.171875 L 5.90625 -3.171875 L 6.890625 -0.25 L 5.328125 -0.25 L 5.328125 0 L 9.765625 0 L 9.765625 -0.25 L 8.453125 -0.25 L 5.125 -10.3125 L 4.953125 -10.3125 L 1.640625 -0.25 Z M 4.375 -7.734375 L 5.828125 -3.40625 L 2.953125 -3.40625 Z M 4.375 -7.734375 "/></g></g></g><g fill="#ffffff" fill-opacity="1"><g transform="translate(93.284429, 16.848842)"><g><path d="M 5.484375 -5.9375 L 1.0625 -5.9375 L 1.0625 -4.125 L 1.234375 -4.125 C 1.265625 -4.4375 1.320312 -4.691406 1.40625 -4.890625 C 1.488281 -5.085938 1.585938 -5.25 1.703125 -5.375 C 1.828125 -5.5 1.96875 -5.582031 2.125 -5.625 C 2.28125 -5.664062 2.453125 -5.6875 2.640625 -5.6875 L 4.15625 -5.6875 L 0.78125 -0.328125 L 0.78125 0 L 5.625 0 L 5.625 -1.984375 L 5.453125 -1.984375 C 5.410156 -1.378906 5.265625 -0.9375 5.015625 -0.65625 C 4.765625 -0.382812 4.398438 -0.25 3.921875 -0.25 L 2.15625 -0.25 L 5.484375 -5.578125 Z M 5.484375 -5.9375 "/></g></g></g><g fill="#ffffff" fill-opacity="1"><g transform="translate(99.36748, 16.848842)"><g><path d="M 5.34375 -1.140625 L 5.34375 0 L 7.703125 0 L 7.703125 -0.25 L 6.640625 -0.25 L 6.640625 -5.9375 L 4.28125 -5.9375 L 4.28125 -5.6875 L 5.34375 -5.6875 L 5.34375 -1.921875 C 5.34375 -1.765625 5.296875 -1.585938 5.203125 -1.390625 C 5.109375 -1.203125 4.976562 -1.023438 4.8125 -0.859375 C 4.65625 -0.691406 4.46875 -0.550781 4.25 -0.4375 C 4.039062 -0.320312 3.828125 -0.265625 3.609375 -0.265625 C 3.253906 -0.265625 3.023438 -0.347656 2.921875 -0.515625 C 2.816406 -0.691406 2.765625 -0.972656 2.765625 -1.359375 L 2.765625 -5.9375 L 0.40625 -5.9375 L 0.40625 -5.6875 L 1.46875 -5.6875 L 1.46875 -1.46875 C 1.46875 -1.144531 1.503906 -0.875 1.578125 -0.65625 C 1.660156 -0.445312 1.773438 -0.28125 1.921875 -0.15625 C 2.066406 -0.0390625 2.226562 0.0390625 2.40625 0.09375 C 2.59375 0.144531 2.789062 0.171875 3 0.171875 C 3.53125 0.171875 3.992188 0.0546875 4.390625 -0.171875 C 4.796875 -0.398438 5.113281 -0.722656 5.34375 -1.140625 Z M 5.34375 -1.140625 "/></g></g></g><g fill="#ffffff" fill-opacity="1"><g transform="translate(107.538752, 16.848842)"><g><path d="M 2.6875 -5.0625 L 2.6875 -5.9375 L 0.328125 -5.9375 L 0.328125 -5.6875 L 1.390625 -5.6875 L 1.390625 -0.25 L 0.328125 -0.25 L 0.328125 0 L 3.75 0 L 3.75 -0.25 L 2.6875 -0.25 L 2.6875 -4.390625 C 2.6875 -4.554688 2.734375 -4.722656 2.828125 -4.890625 C 2.929688 -5.054688 3.0625 -5.210938 3.21875 -5.359375 C 3.375 -5.503906 3.546875 -5.617188 3.734375 -5.703125 C 3.929688 -5.785156 4.117188 -5.828125 4.296875 -5.828125 C 4.410156 -5.828125 4.507812 -5.816406 4.59375 -5.796875 C 4.675781 -5.785156 4.71875 -5.75 4.71875 -5.6875 C 4.71875 -5.632812 4.691406 -5.601562 4.640625 -5.59375 C 4.585938 -5.550781 4.519531 -5.476562 4.4375 -5.375 C 4.351562 -5.28125 4.3125 -5.132812 4.3125 -4.9375 C 4.3125 -4.726562 4.378906 -4.550781 4.515625 -4.40625 C 4.660156 -4.269531 4.851562 -4.203125 5.09375 -4.203125 C 5.289062 -4.203125 5.460938 -4.269531 5.609375 -4.40625 C 5.765625 -4.550781 5.84375 -4.742188 5.84375 -4.984375 C 5.84375 -5.179688 5.800781 -5.347656 5.71875 -5.484375 C 5.644531 -5.617188 5.539062 -5.726562 5.40625 -5.8125 C 5.28125 -5.90625 5.132812 -5.972656 4.96875 -6.015625 C 4.800781 -6.054688 4.632812 -6.078125 4.46875 -6.078125 C 4.226562 -6.078125 4.007812 -6.039062 3.8125 -5.96875 C 3.625 -5.894531 3.453125 -5.804688 3.296875 -5.703125 C 3.148438 -5.609375 3.023438 -5.5 2.921875 -5.375 C 2.816406 -5.257812 2.738281 -5.15625 2.6875 -5.0625 Z M 2.6875 -5.0625 "/></g></g></g><g fill="#ffffff" fill-opacity="1"><g transform="translate(61.470564, 34.430237)"><g><path d="M 0.375 -5.9375 L 0.375 -5.6875 L 1.359375 -5.6875 L 3.78125 0.0625 L 3.90625 0.0625 L 6.203125 -5.6875 L 7.09375 -5.6875 L 7.09375 -5.9375 L 4.859375 -5.9375 L 4.859375 -5.6875 L 5.9375 -5.6875 L 4.359375 -1.734375 L 2.75 -5.6875 L 3.8125 -5.6875 L 3.8125 -5.9375 Z M 0.375 -5.9375 "/></g></g></g><g fill="#ffffff" fill-opacity="1"><g transform="translate(68.885234, 34.430237)"><g><path d="M 2.984375 -5.9375 L 0.546875 -5.9375 L 0.546875 -5.6875 L 1.6875 -5.6875 L 1.6875 -0.25 L 0.546875 -0.25 L 0.546875 0 L 4.125 0 L 4.125 -0.25 L 2.984375 -0.25 Z M 3.109375 -8.734375 C 3.109375 -8.953125 3.03125 -9.132812 2.875 -9.28125 C 2.726562 -9.4375 2.539062 -9.515625 2.3125 -9.515625 C 2.09375 -9.515625 1.90625 -9.4375 1.75 -9.28125 C 1.601562 -9.132812 1.53125 -8.953125 1.53125 -8.734375 C 1.53125 -8.515625 1.601562 -8.328125 1.75 -8.171875 C 1.90625 -8.023438 2.09375 -7.953125 2.3125 -7.953125 C 2.539062 -7.953125 2.726562 -8.023438 2.875 -8.171875 C 3.03125 -8.328125 3.109375 -8.515625 3.109375 -8.734375 Z M 3.109375 -8.734375 "/></g></g></g><g fill="#ffffff" fill-opacity="1"><g transform="translate(73.334035, 34.430237)"><g><path d="M 2.890625 -0.25 L 2.890625 -10.171875 L 0.53125 -10.171875 L 0.53125 -9.9375 L 1.59375 -9.9375 L 1.59375 -0.25 L 0.53125 -0.25 L 0.53125 0 L 3.953125 0 L 3.953125 -0.25 Z M 2.890625 -0.25 "/></g></g></g><g fill="#ffffff" fill-opacity="1"><g transform="translate(77.646645, 34.430237)"><g><path d="M 2.890625 -0.25 L 2.890625 -10.171875 L 0.53125 -10.171875 L 0.53125 -9.9375 L 1.59375 -9.9375 L 1.59375 -0.25 L 0.53125 -0.25 L 0.53125 0 L 3.953125 0 L 3.953125 -0.25 Z M 2.890625 -0.25 "/></g></g></g><g fill="#ffffff" fill-opacity="1"><g transform="translate(81.959254, 34.430237)"><g><path d="M 5.953125 -3.671875 C 5.941406 -3.835938 5.882812 -4.0625 5.78125 -4.34375 C 5.6875 -4.625 5.539062 -4.894531 5.34375 -5.15625 C 5.144531 -5.425781 4.878906 -5.65625 4.546875 -5.84375 C 4.210938 -6.039062 3.800781 -6.140625 3.3125 -6.140625 C 2.90625 -6.140625 2.53125 -6.046875 2.1875 -5.859375 C 1.84375 -5.671875 1.539062 -5.421875 1.28125 -5.109375 C 1.03125 -4.804688 0.832031 -4.460938 0.6875 -4.078125 C 0.550781 -3.703125 0.484375 -3.316406 0.484375 -2.921875 C 0.484375 -2.523438 0.550781 -2.140625 0.6875 -1.765625 C 0.832031 -1.398438 1.03125 -1.066406 1.28125 -0.765625 C 1.539062 -0.472656 1.847656 -0.234375 2.203125 -0.046875 C 2.554688 0.128906 2.945312 0.21875 3.375 0.21875 C 3.71875 0.21875 4.03125 0.164062 4.3125 0.0625 C 4.59375 -0.03125 4.84375 -0.160156 5.0625 -0.328125 C 5.28125 -0.492188 5.460938 -0.6875 5.609375 -0.90625 C 5.765625 -1.125 5.890625 -1.359375 5.984375 -1.609375 C 6.015625 -1.671875 6.03125 -1.738281 6.03125 -1.8125 C 6.03125 -1.882812 6 -1.921875 5.9375 -1.921875 C 5.882812 -1.921875 5.835938 -1.867188 5.796875 -1.765625 C 5.703125 -1.554688 5.585938 -1.34375 5.453125 -1.125 C 5.316406 -0.914062 5.148438 -0.726562 4.953125 -0.5625 C 4.753906 -0.40625 4.53125 -0.273438 4.28125 -0.171875 C 4.03125 -0.078125 3.738281 -0.03125 3.40625 -0.03125 C 3 -0.03125 2.671875 -0.179688 2.421875 -0.484375 C 2.179688 -0.785156 2.0625 -1.269531 2.0625 -1.9375 L 2.0625 -3.484375 L 5.703125 -3.484375 C 5.867188 -3.484375 5.953125 -3.546875 5.953125 -3.671875 Z M 2.0625 -3.71875 L 2.0625 -4.328125 C 2.0625 -4.660156 2.097656 -4.929688 2.171875 -5.140625 C 2.242188 -5.347656 2.34375 -5.503906 2.46875 -5.609375 C 2.59375 -5.722656 2.726562 -5.800781 2.875 -5.84375 C 3.03125 -5.882812 3.179688 -5.90625 3.328125 -5.90625 C 3.566406 -5.90625 3.765625 -5.859375 3.921875 -5.765625 C 4.078125 -5.679688 4.203125 -5.566406 4.296875 -5.421875 C 4.390625 -5.285156 4.453125 -5.128906 4.484375 -4.953125 C 4.515625 -4.785156 4.53125 -4.613281 4.53125 -4.4375 C 4.53125 -3.957031 4.453125 -3.71875 4.296875 -3.71875 Z M 2.0625 -3.71875 "/></g></g></g><path stroke-linecap="butt" transform="matrix(0.730063, 0, 0, 0.732558, 36.613494, 31.280237)" fill="none" stroke-linejoin="miter" d="M -0.000291208 0.502623 L 32.119165 0.502623 " stroke="#ffffff" stroke-width="1" stroke-opacity="1" stroke-miterlimit="4"/><path stroke-linecap="butt" transform="matrix(0.730063, 0, 0, 0.732558, 90.676284, 30.913958)" fill="none" stroke-linejoin="miter" d="M -0.000687973 0.501383 L 32.118768 0.501383 " stroke="#ffffff" stroke-width="1" stroke-opacity="1" stroke-miterlimit="4"/></svg>