<svg xmlns="http://www.w3.org/2000/svg" xmlns:xlink="http://www.w3.org/1999/xlink" width="40" zoomAndPan="magnify" viewBox="0 0 30 30.000001" height="40" preserveAspectRatio="xMidYMid meet" version="1.0"><defs><g/><clipPath id="c892b5db25"><path d="M 0.484375 0 L 29.515625 0 L 29.515625 29.03125 L 0.484375 29.03125 Z M 0.484375 0 " clip-rule="nonzero"/></clipPath></defs><g clip-path="url(#c892b5db25)"><path fill="#ffffff" d="M 0.484375 0 L 29.515625 0 L 29.515625 36.289062 L 0.484375 36.289062 Z M 0.484375 0 " fill-opacity="1" fill-rule="nonzero"/><path fill="#ffffff" d="M 0.484375 0 L 29.515625 0 L 29.515625 29.03125 L 0.484375 29.03125 Z M 0.484375 0 " fill-opacity="1" fill-rule="nonzero"/><path fill="#ffffff" d="M 0.484375 0 L 29.515625 0 L 29.515625 29.03125 L 0.484375 29.03125 Z M 0.484375 0 " fill-opacity="1" fill-rule="nonzero"/></g><g fill="#000000" fill-opacity="1"><g transform="translate(1.164402, 26.85484)"><g><path d="M 20.84375 -7.40625 C 20.726562 -7.40625 20.609375 -7.273438 20.484375 -7.015625 C 20.046875 -6.015625 19.570312 -5.082031 19.0625 -4.21875 C 18.550781 -3.351562 17.96875 -2.601562 17.3125 -1.96875 C 16.65625 -1.332031 15.921875 -0.835938 15.109375 -0.484375 C 14.304688 -0.140625 13.421875 0.03125 12.453125 0.03125 C 10.234375 0.03125 8.585938 -0.832031 7.515625 -2.5625 C 6.453125 -4.289062 5.921875 -6.820312 5.921875 -10.15625 L 5.921875 -14.234375 C 5.921875 -17.453125 6.46875 -19.929688 7.5625 -21.671875 C 8.65625 -23.410156 10.347656 -24.28125 12.640625 -24.28125 C 13.585938 -24.28125 14.445312 -24.128906 15.21875 -23.828125 C 16 -23.523438 16.707031 -23.101562 17.34375 -22.5625 C 17.976562 -22.03125 18.523438 -21.382812 18.984375 -20.625 C 19.453125 -19.875 19.832031 -19.0625 20.125 -18.1875 C 20.195312 -17.9375 20.28125 -17.8125 20.375 -17.8125 C 20.5 -17.8125 20.5625 -17.960938 20.5625 -18.265625 L 20.5625 -24.203125 C 20.5625 -24.421875 20.535156 -24.566406 20.484375 -24.640625 C 20.429688 -24.710938 20.359375 -24.75 20.265625 -24.75 C 20.140625 -24.75 19.984375 -24.65625 19.796875 -24.46875 L 18.375 -23 C 17.59375 -23.632812 16.710938 -24.113281 15.734375 -24.4375 C 14.765625 -24.769531 13.734375 -24.9375 12.640625 -24.9375 C 11.023438 -24.9375 9.53125 -24.570312 8.15625 -23.84375 C 6.78125 -23.113281 5.585938 -22.148438 4.578125 -20.953125 C 3.566406 -19.765625 2.78125 -18.410156 2.21875 -16.890625 C 1.664062 -15.367188 1.390625 -13.828125 1.390625 -12.265625 C 1.390625 -10.460938 1.710938 -8.773438 2.359375 -7.203125 C 3.003906 -5.640625 3.847656 -4.269531 4.890625 -3.09375 C 5.941406 -1.925781 7.125 -1.003906 8.4375 -0.328125 C 9.75 0.347656 11.085938 0.6875 12.453125 0.6875 C 13.597656 0.6875 14.691406 0.460938 15.734375 0.015625 C 16.785156 -0.429688 17.722656 -1.117188 18.546875 -2.046875 L 20.484375 0.078125 C 20.609375 0.191406 20.71875 0.25 20.8125 0.25 C 20.957031 0.25 21.03125 0.164062 21.03125 0 L 21.03125 -7.046875 C 21.03125 -7.285156 20.96875 -7.40625 20.84375 -7.40625 Z M 20.84375 -7.40625 "/></g></g></g><g fill="#000000" fill-opacity="1"><g transform="translate(23.539654, 26.85484)"><g/></g></g></svg>